<svg width="775" height="339" viewBox="0 0 775 339" fill="none" xmlns="http://www.w3.org/2000/svg">
<path d="M159.6 291.9V333H26.1V105.6H73.8V291.9H159.6ZM399.08 281.7H309.38L291.38 333H243.38L324.38 102.9H383.78L465.08 333H417.08L399.08 281.7ZM384.68 240.6L354.08 153L323.48 240.6H384.68ZM744.642 194.1V317.1C732.642 323.9 719.642 329.1 705.642 332.7C691.642 336.3 678.542 338.1 666.342 338.1C640.942 338.1 619.442 333.2 601.842 323.4C584.242 313.4 570.942 299.5 561.942 281.7C553.142 263.9 548.742 243.2 548.742 219.6C548.742 197.2 552.942 177.1 561.342 159.3C569.942 141.5 583.042 127.4 600.642 117C618.242 106.6 640.142 101.4 666.342 101.4C679.542 101.4 690.642 102.7 699.642 105.3C708.842 107.7 719.142 111.4 730.542 116.4V159C720.342 153.4 710.242 149.2 700.242 146.4C690.442 143.4 679.142 141.9 666.342 141.9C652.142 141.9 639.842 145.2 629.442 151.8C619.042 158.4 611.042 167.5 605.442 179.1C600.042 190.7 597.342 203.9 597.342 218.7C597.342 242.5 603.342 261.6 615.342 276C627.542 290.4 644.542 297.6 666.342 297.6C676.942 297.6 687.442 295.6 697.842 291.6V235.2H634.242V194.1H744.642Z" fill="black"/>
<path d="M662.159 38.0204C634.446 40.8738 472.255 64.8277 426.506 93.2524C380.757 121.677 23 333 23 333C23 333 689.873 35.167 662.159 38.0204Z" fill="url(#paint0_linear_237_1681)"/>
<defs>
<linearGradient id="paint0_linear_237_1681" x1="343" y1="38" x2="343" y2="333" gradientUnits="userSpaceOnUse">
<stop stop-color="#0C70E8"/>
<stop offset="0.760417" stop-color="#00D9DB"/>
</linearGradient>
</defs>
</svg>
