<svg width="303" height="140" viewBox="0 0 303 140" fill="none" xmlns="http://www.w3.org/2000/svg">
<path d="M63.1484 115.738V132H10.3269V42.0254H29.2002V115.738H63.1484ZM157.903 111.702H122.411L115.289 132H96.2972L128.346 40.9571H151.849L184.017 132H165.025L157.903 111.702ZM152.205 95.4404L140.098 60.78L127.99 95.4404H152.205ZM294.63 77.0419V125.709C289.882 128.399 284.738 130.457 279.199 131.881C273.66 133.306 268.477 134.018 263.649 134.018C253.599 134.018 245.093 132.079 238.129 128.202C231.165 124.245 225.903 118.745 222.342 111.702C218.86 104.659 217.119 96.4691 217.119 87.1314C217.119 78.2685 218.781 70.3156 222.104 63.2727C225.507 56.2298 230.69 50.6509 237.654 46.536C244.618 42.4211 253.283 40.3636 263.649 40.3636C268.872 40.3636 273.264 40.878 276.825 41.9067C280.465 42.8563 284.541 44.3203 289.051 46.2986V63.154C285.015 60.9383 281.019 59.2765 277.062 58.1686C273.185 56.9816 268.714 56.3881 263.649 56.3881C258.031 56.3881 253.164 57.6938 249.049 60.3052C244.934 62.9166 241.769 66.5172 239.553 71.1069C237.417 75.6966 236.348 80.9194 236.348 86.7753C236.348 96.1922 238.722 103.749 243.47 109.447C248.298 115.145 255.024 117.993 263.649 117.993C267.843 117.993 271.998 117.202 276.113 115.619V93.3038H250.948V77.0419H294.63Z" fill="black"/>
<path d="M268.66 12.0083C257.445 13.169 191.808 22.913 173.294 34.4755C154.78 46.0381 10 132 10 132C10 132 279.875 10.8476 268.66 12.0083Z" fill="url(#paint0_linear_141_3386)"/>
<defs>
<linearGradient id="paint0_linear_141_3386" x1="139.5" y1="12" x2="139.5" y2="132" gradientUnits="userSpaceOnUse">
<stop stop-color="#0C70E8"/>
<stop offset="0.760417" stop-color="#00D9DB"/>
</linearGradient>
</defs>
</svg>
